<svg width="300" height="60" viewBox="0 0 300 60" xmlns="http://www.w3.org/2000/svg">
  <defs>
    <linearGradient id="onionStringGrad" x1="0%" y1="0%" x2="0%" y2="100%">
      <stop offset="0%" style="stop-color:#DAA520;stop-opacity:0.85" />
      <stop offset="100%" style="stop-color:#B8860B;stop-opacity:0.85" />
    </linearGradient>
  </defs>
  <!-- Tangled onion strings -->
  <path d="M 30,25 Q 60,20 90,28 Q 120,22 150,30 Q 180,24 210,32 Q 240,26 270,30"
        fill="none" stroke="url(#onionStringGrad)" stroke-width="5" stroke-linecap="round" opacity="0.85"/>
  <path d="M 40,35 Q 70,30 100,36 Q 130,32 160,38 Q 190,34 220,40 Q 250,36 275,38"
        fill="none" stroke="url(#onionStringGrad)" stroke-width="4.5" stroke-linecap="round" opacity="0.8"/>
  <path d="M 50,20 Q 80,18 110,22 Q 140,19 170,24 Q 200,20 230,25 Q 260,22 280,24"
        fill="none" stroke="url(#onionStringGrad)" stroke-width="4" stroke-linecap="round" opacity="0.75"/>
  <!-- Crispy bits -->
  <circle cx="90" cy="28" r="2" fill="#8B6914" opacity="0.6"/>
  <circle cx="160" cy="35" r="2" fill="#8B6914" opacity="0.6"/>
  <circle cx="230" cy="30" r="2" fill="#8B6914" opacity="0.6"/>
</svg>