<svg width="300" height="60" viewBox="0 0 300 60" xmlns="http://www.w3.org/2000/svg">
  <defs>
    <linearGradient id="baconGrad" x1="0%" y1="0%" x2="100%" y2="0%">
      <stop offset="0%" style="stop-color:#C85A54;stop-opacity:1" />
      <stop offset="50%" style="stop-color:#D4796B;stop-opacity:1" />
      <stop offset="100%" style="stop-color:#C85A54;stop-opacity:1" />
    </linearGradient>
  </defs>
  <!-- Bacon strips -->
  <path d="M 15,20 Q 80,18 150,22 Q 220,18 285,20 L 280,40 Q 215,42 150,38 Q 85,42 20,40 Z"
        fill="url(#baconGrad)" stroke="#A64842" stroke-width="1.5"/>
  <!-- Fat marbling -->
  <path d="M 40,25 Q 45,24 50,25" stroke="#F5D7A8" stroke-width="3" fill="none" opacity="0.8"/>
  <path d="M 90,27 Q 100,26 110,27" stroke="#F5D7A8" stroke-width="4" fill="none" opacity="0.8"/>
  <path d="M 160,24 Q 170,23 180,24" stroke="#F5D7A8" stroke-width="3.5" fill="none" opacity="0.8"/>
  <path d="M 220,28 Q 230,27 240,28" stroke="#F5D7A8" stroke-width="3" fill="none" opacity="0.8"/>
  <!-- Crispy edges -->
  <ellipse cx="30" cy="32" rx="3" ry="2" fill="#9A3630" opacity="0.6"/>
  <ellipse cx="120" cy="28" rx="2.5" ry="2" fill="#9A3630" opacity="0.5"/>
  <ellipse cx="200" cy="34" rx="3" ry="2" fill="#9A3630" opacity="0.6"/>
  <ellipse cx="260" cy="30" rx="2.5" ry="2" fill="#9A3630" opacity="0.5"/>
</svg>