<svg width="300" height="60" viewBox="0 0 300 60" xmlns="http://www.w3.org/2000/svg">
  <defs>
    <radialGradient id="arugulaGrad">
      <stop offset="0%" style="stop-color:#6B8E23;stop-opacity:0.85" />
      <stop offset="100%" style="stop-color:#556B2F;stop-opacity:0.85" />
    </radialGradient>
  </defs>
  <!-- Arugula leaves with jagged edges -->
  <path d="M 30,30 Q 50,15 75,28 L 80,25 Q 90,18 105,27 L 110,23 Q 125,15 145,26
           L 150,22 Q 165,14 185,25 L 190,21 Q 205,13 225,24 L 230,20 Q 250,12 270,25
           Q 260,40 240,32 L 235,35 Q 220,43 200,34 L 195,37 Q 180,45 160,36
           L 155,39 Q 140,47 120,38 L 115,41 Q 100,48 80,40 L 75,43 Q 55,50 30,30 Z"
        fill="url(#arugulaGrad)" opacity="0.8"/>
  <!-- Leaf veins -->
  <path d="M 70,28 L 75,32" stroke="#4A5F1A" stroke-width="0.8" opacity="0.5"/>
  <path d="M 150,25 L 155,30" stroke="#4A5F1A" stroke-width="0.8" opacity="0.5"/>
  <path d="M 230,24 L 235,29" stroke="#4A5F1A" stroke-width="0.8" opacity="0.5"/>
</svg>