<svg width="300" height="60" viewBox="0 0 300 60" xmlns="http://www.w3.org/2000/svg">
  <defs>
    <radialGradient id="lettuceGrad">
      <stop offset="0%" style="stop-color:#90EE90;stop-opacity:0.9" />
      <stop offset="100%" style="stop-color:#7FD87F;stop-opacity:0.9" />
    </radialGradient>
  </defs>
  <!-- Leafy lettuce -->
  <path d="M 20,30 Q 40,15 70,25 Q 100,18 130,28 Q 160,20 190,28 Q 220,18 250,25 Q 280,15 290,30
           Q 280,45 250,35 Q 220,42 190,32 Q 160,40 130,32 Q 100,42 70,35 Q 40,45 20,30 Z"
        fill="url(#lettuceGrad)" opacity="0.85"/>
  <!-- Veins -->
  <path d="M 70,25 Q 90,28 110,26" stroke="#6BC86B" stroke-width="1" fill="none" opacity="0.6"/>
  <path d="M 150,24 Q 170,27 190,25" stroke="#6BC86B" stroke-width="1" fill="none" opacity="0.6"/>
  <path d="M 230,27 Q 250,30 270,28" stroke="#6BC86B" stroke-width="1" fill="none" opacity="0.6"/>
</svg>